<mxfile host="Electron" modified="2024-07-16T12:04:17.601Z" agent="Mozilla/5.0 (Windows NT 10.0; Win64; x64) AppleWebKit/537.36 (KHTML, like Gecko) draw.io/24.6.4 Chrome/124.0.6367.207 Electron/30.0.6 Safari/537.36" etag="_--JhYy71xKeREMU8f3S" version="24.6.4" type="device">
  <diagram name="Page-1" id="QbE0hp_gIZ9hzuOzpSn0">
    <mxGraphModel dx="1955" dy="1754" grid="1" gridSize="10" guides="1" tooltips="1" connect="1" arrows="1" fold="1" page="1" pageScale="1" pageWidth="850" pageHeight="1100" math="0" shadow="0">
      <root>
        <mxCell id="0" />
        <mxCell id="1" parent="0" />
        <mxCell id="lmEOL8vwbCnzUJfN-mL1-18" style="edgeStyle=orthogonalEdgeStyle;rounded=0;orthogonalLoop=1;jettySize=auto;html=1;exitX=0;exitY=0.5;exitDx=0;exitDy=0;entryX=1;entryY=0.5;entryDx=0;entryDy=0;startArrow=none;startFill=0;endArrow=none;endFill=0;" edge="1" parent="1" source="lmEOL8vwbCnzUJfN-mL1-2" target="lmEOL8vwbCnzUJfN-mL1-13">
          <mxGeometry relative="1" as="geometry">
            <Array as="points">
              <mxPoint x="40" y="-90" />
            </Array>
          </mxGeometry>
        </mxCell>
        <mxCell id="lmEOL8vwbCnzUJfN-mL1-29" style="edgeStyle=orthogonalEdgeStyle;rounded=0;orthogonalLoop=1;jettySize=auto;html=1;exitX=0.5;exitY=0;exitDx=0;exitDy=0;entryX=0.5;entryY=1;entryDx=0;entryDy=0;startArrow=ERmandOne;startFill=0;endArrow=ERmandOne;endFill=0;" edge="1" parent="1" source="lmEOL8vwbCnzUJfN-mL1-2" target="lmEOL8vwbCnzUJfN-mL1-14">
          <mxGeometry relative="1" as="geometry" />
        </mxCell>
        <mxCell id="lmEOL8vwbCnzUJfN-mL1-47" style="edgeStyle=orthogonalEdgeStyle;rounded=0;orthogonalLoop=1;jettySize=auto;html=1;exitX=0.75;exitY=1;exitDx=0;exitDy=0;entryX=0.5;entryY=0;entryDx=0;entryDy=0;startArrow=none;startFill=0;endArrow=none;endFill=0;" edge="1" parent="1" source="lmEOL8vwbCnzUJfN-mL1-2" target="lmEOL8vwbCnzUJfN-mL1-50">
          <mxGeometry relative="1" as="geometry">
            <mxPoint x="150" y="30" as="targetPoint" />
          </mxGeometry>
        </mxCell>
        <mxCell id="lmEOL8vwbCnzUJfN-mL1-52" style="edgeStyle=orthogonalEdgeStyle;rounded=0;orthogonalLoop=1;jettySize=auto;html=1;exitX=1;exitY=1;exitDx=0;exitDy=0;entryX=0.5;entryY=0;entryDx=0;entryDy=0;startArrow=none;startFill=0;endArrow=none;endFill=0;" edge="1" parent="1" source="lmEOL8vwbCnzUJfN-mL1-2" target="lmEOL8vwbCnzUJfN-mL1-51">
          <mxGeometry relative="1" as="geometry" />
        </mxCell>
        <mxCell id="lmEOL8vwbCnzUJfN-mL1-77" style="edgeStyle=orthogonalEdgeStyle;rounded=0;orthogonalLoop=1;jettySize=auto;html=1;exitX=0.5;exitY=1;exitDx=0;exitDy=0;entryX=0.5;entryY=0;entryDx=0;entryDy=0;startArrow=ERoneToMany;startFill=0;endArrow=none;endFill=0;" edge="1" parent="1" source="lmEOL8vwbCnzUJfN-mL1-2" target="lmEOL8vwbCnzUJfN-mL1-74">
          <mxGeometry relative="1" as="geometry" />
        </mxCell>
        <mxCell id="lmEOL8vwbCnzUJfN-mL1-2" value="employees" style="whiteSpace=wrap;html=1;align=center;" vertex="1" parent="1">
          <mxGeometry x="40" y="-100" width="100" height="40" as="geometry" />
        </mxCell>
        <mxCell id="lmEOL8vwbCnzUJfN-mL1-55" style="edgeStyle=orthogonalEdgeStyle;rounded=0;orthogonalLoop=1;jettySize=auto;html=1;exitX=0;exitY=0.5;exitDx=0;exitDy=0;entryX=1;entryY=0.5;entryDx=0;entryDy=0;startArrow=none;startFill=0;endArrow=none;endFill=0;" edge="1" parent="1" source="lmEOL8vwbCnzUJfN-mL1-4" target="lmEOL8vwbCnzUJfN-mL1-56">
          <mxGeometry relative="1" as="geometry">
            <mxPoint x="-400" y="-179.99999999999977" as="targetPoint" />
          </mxGeometry>
        </mxCell>
        <mxCell id="lmEOL8vwbCnzUJfN-mL1-68" style="edgeStyle=orthogonalEdgeStyle;rounded=0;orthogonalLoop=1;jettySize=auto;html=1;exitX=0.5;exitY=0;exitDx=0;exitDy=0;entryX=0.5;entryY=1;entryDx=0;entryDy=0;endArrow=none;endFill=0;" edge="1" parent="1" source="lmEOL8vwbCnzUJfN-mL1-4" target="lmEOL8vwbCnzUJfN-mL1-64">
          <mxGeometry relative="1" as="geometry" />
        </mxCell>
        <mxCell id="lmEOL8vwbCnzUJfN-mL1-69" style="edgeStyle=orthogonalEdgeStyle;rounded=0;orthogonalLoop=1;jettySize=auto;html=1;exitX=0.5;exitY=0;exitDx=0;exitDy=0;entryX=0.5;entryY=1;entryDx=0;entryDy=0;endArrow=none;endFill=0;" edge="1" parent="1" source="lmEOL8vwbCnzUJfN-mL1-4" target="lmEOL8vwbCnzUJfN-mL1-65">
          <mxGeometry relative="1" as="geometry" />
        </mxCell>
        <mxCell id="lmEOL8vwbCnzUJfN-mL1-4" value="department" style="whiteSpace=wrap;html=1;align=center;" vertex="1" parent="1">
          <mxGeometry x="-310" y="-200" width="100" height="40" as="geometry" />
        </mxCell>
        <mxCell id="lmEOL8vwbCnzUJfN-mL1-31" style="edgeStyle=orthogonalEdgeStyle;rounded=0;orthogonalLoop=1;jettySize=auto;html=1;exitX=1;exitY=0.5;exitDx=0;exitDy=0;entryX=0;entryY=0.5;entryDx=0;entryDy=0;endArrow=none;endFill=0;" edge="1" parent="1" source="lmEOL8vwbCnzUJfN-mL1-7" target="lmEOL8vwbCnzUJfN-mL1-12">
          <mxGeometry relative="1" as="geometry" />
        </mxCell>
        <mxCell id="lmEOL8vwbCnzUJfN-mL1-32" style="edgeStyle=orthogonalEdgeStyle;rounded=0;orthogonalLoop=1;jettySize=auto;html=1;exitX=1;exitY=0.5;exitDx=0;exitDy=0;entryX=0;entryY=0.5;entryDx=0;entryDy=0;endArrow=none;endFill=0;" edge="1" parent="1" source="lmEOL8vwbCnzUJfN-mL1-7" target="lmEOL8vwbCnzUJfN-mL1-11">
          <mxGeometry relative="1" as="geometry" />
        </mxCell>
        <mxCell id="lmEOL8vwbCnzUJfN-mL1-7" value="fullname" style="ellipse;whiteSpace=wrap;html=1;align=center;" vertex="1" parent="1">
          <mxGeometry x="260" y="-220" width="100" height="40" as="geometry" />
        </mxCell>
        <mxCell id="lmEOL8vwbCnzUJfN-mL1-8" value="gender" style="ellipse;whiteSpace=wrap;html=1;align=center;" vertex="1" parent="1">
          <mxGeometry x="260" y="-160" width="100" height="40" as="geometry" />
        </mxCell>
        <mxCell id="lmEOL8vwbCnzUJfN-mL1-10" value="address" style="ellipse;whiteSpace=wrap;html=1;align=center;" vertex="1" parent="1">
          <mxGeometry x="260" y="-100" width="100" height="40" as="geometry" />
        </mxCell>
        <mxCell id="lmEOL8vwbCnzUJfN-mL1-11" value="last name" style="ellipse;whiteSpace=wrap;html=1;align=center;" vertex="1" parent="1">
          <mxGeometry x="440" y="-190" width="100" height="40" as="geometry" />
        </mxCell>
        <mxCell id="lmEOL8vwbCnzUJfN-mL1-12" value="first name" style="ellipse;whiteSpace=wrap;html=1;align=center;" vertex="1" parent="1">
          <mxGeometry x="430" y="-260" width="100" height="40" as="geometry" />
        </mxCell>
        <mxCell id="lmEOL8vwbCnzUJfN-mL1-76" style="edgeStyle=orthogonalEdgeStyle;rounded=0;orthogonalLoop=1;jettySize=auto;html=1;exitX=0.5;exitY=1;exitDx=0;exitDy=0;entryX=0;entryY=0.75;entryDx=0;entryDy=0;endArrow=none;endFill=0;" edge="1" parent="1" source="lmEOL8vwbCnzUJfN-mL1-13" target="lmEOL8vwbCnzUJfN-mL1-2">
          <mxGeometry relative="1" as="geometry" />
        </mxCell>
        <mxCell id="lmEOL8vwbCnzUJfN-mL1-13" value="Manage" style="shape=rhombus;perimeter=rhombusPerimeter;whiteSpace=wrap;html=1;align=center;" vertex="1" parent="1">
          <mxGeometry x="-140" y="-120" width="120" height="60" as="geometry" />
        </mxCell>
        <mxCell id="lmEOL8vwbCnzUJfN-mL1-23" style="edgeStyle=orthogonalEdgeStyle;rounded=0;orthogonalLoop=1;jettySize=auto;html=1;exitX=1;exitY=0.5;exitDx=0;exitDy=0;entryX=0;entryY=0.5;entryDx=0;entryDy=0;endArrow=none;endFill=0;" edge="1" parent="1" source="lmEOL8vwbCnzUJfN-mL1-14" target="lmEOL8vwbCnzUJfN-mL1-7">
          <mxGeometry relative="1" as="geometry" />
        </mxCell>
        <mxCell id="lmEOL8vwbCnzUJfN-mL1-24" style="edgeStyle=orthogonalEdgeStyle;rounded=0;orthogonalLoop=1;jettySize=auto;html=1;exitX=1;exitY=0.5;exitDx=0;exitDy=0;entryX=0;entryY=0.5;entryDx=0;entryDy=0;endArrow=none;endFill=0;" edge="1" parent="1" source="lmEOL8vwbCnzUJfN-mL1-14" target="lmEOL8vwbCnzUJfN-mL1-8">
          <mxGeometry relative="1" as="geometry" />
        </mxCell>
        <mxCell id="lmEOL8vwbCnzUJfN-mL1-25" style="edgeStyle=orthogonalEdgeStyle;rounded=0;orthogonalLoop=1;jettySize=auto;html=1;exitX=1;exitY=0.5;exitDx=0;exitDy=0;entryX=0;entryY=0.5;entryDx=0;entryDy=0;endArrow=none;endFill=0;" edge="1" parent="1" source="lmEOL8vwbCnzUJfN-mL1-14" target="lmEOL8vwbCnzUJfN-mL1-10">
          <mxGeometry relative="1" as="geometry" />
        </mxCell>
        <mxCell id="lmEOL8vwbCnzUJfN-mL1-53" style="edgeStyle=orthogonalEdgeStyle;rounded=0;orthogonalLoop=1;jettySize=auto;html=1;exitX=0;exitY=0.5;exitDx=0;exitDy=0;entryX=1;entryY=0.5;entryDx=0;entryDy=0;endArrow=ERmandOne;endFill=0;startArrow=ERmandOne;startFill=0;" edge="1" parent="1" source="lmEOL8vwbCnzUJfN-mL1-14" target="lmEOL8vwbCnzUJfN-mL1-4">
          <mxGeometry relative="1" as="geometry" />
        </mxCell>
        <mxCell id="lmEOL8vwbCnzUJfN-mL1-71" style="edgeStyle=orthogonalEdgeStyle;rounded=0;orthogonalLoop=1;jettySize=auto;html=1;exitX=1;exitY=0.5;exitDx=0;exitDy=0;entryX=0;entryY=0.5;entryDx=0;entryDy=0;endArrow=none;endFill=0;" edge="1" parent="1" source="lmEOL8vwbCnzUJfN-mL1-14" target="lmEOL8vwbCnzUJfN-mL1-70">
          <mxGeometry relative="1" as="geometry" />
        </mxCell>
        <mxCell id="lmEOL8vwbCnzUJfN-mL1-14" value="record" style="shape=rhombus;perimeter=rhombusPerimeter;whiteSpace=wrap;html=1;align=center;" vertex="1" parent="1">
          <mxGeometry y="-200" width="120" height="60" as="geometry" />
        </mxCell>
        <mxCell id="lmEOL8vwbCnzUJfN-mL1-81" style="edgeStyle=orthogonalEdgeStyle;rounded=0;orthogonalLoop=1;jettySize=auto;html=1;exitX=0.5;exitY=1;exitDx=0;exitDy=0;entryX=0.5;entryY=0;entryDx=0;entryDy=0;endArrow=none;endFill=0;" edge="1" parent="1" source="lmEOL8vwbCnzUJfN-mL1-21" target="lmEOL8vwbCnzUJfN-mL1-80">
          <mxGeometry relative="1" as="geometry" />
        </mxCell>
        <mxCell id="lmEOL8vwbCnzUJfN-mL1-21" value="Project" style="whiteSpace=wrap;html=1;align=center;" vertex="1" parent="1">
          <mxGeometry x="40" y="70" width="100" height="40" as="geometry" />
        </mxCell>
        <mxCell id="lmEOL8vwbCnzUJfN-mL1-39" value="Salaries" style="whiteSpace=wrap;html=1;align=center;" vertex="1" parent="1">
          <mxGeometry x="690" y="-450" width="100" height="40" as="geometry" />
        </mxCell>
        <mxCell id="lmEOL8vwbCnzUJfN-mL1-50" value="position" style="ellipse;shape=doubleEllipse;margin=3;whiteSpace=wrap;html=1;align=center;" vertex="1" parent="1">
          <mxGeometry x="330" y="20" width="100" height="40" as="geometry" />
        </mxCell>
        <mxCell id="lmEOL8vwbCnzUJfN-mL1-51" value="salary" style="ellipse;shape=doubleEllipse;margin=3;whiteSpace=wrap;html=1;align=center;" vertex="1" parent="1">
          <mxGeometry x="425" y="-20" width="100" height="40" as="geometry" />
        </mxCell>
        <mxCell id="lmEOL8vwbCnzUJfN-mL1-56" value="roomname" style="ellipse;whiteSpace=wrap;html=1;align=center;" vertex="1" parent="1">
          <mxGeometry x="-450" y="-270" width="100" height="40" as="geometry" />
        </mxCell>
        <mxCell id="lmEOL8vwbCnzUJfN-mL1-60" style="edgeStyle=orthogonalEdgeStyle;rounded=0;orthogonalLoop=1;jettySize=auto;html=1;exitX=0.5;exitY=1;exitDx=0;exitDy=0;" edge="1" parent="1">
          <mxGeometry relative="1" as="geometry">
            <mxPoint x="-620" y="-129.99999999999977" as="sourcePoint" />
            <mxPoint x="-620" y="-129.99999999999977" as="targetPoint" />
          </mxGeometry>
        </mxCell>
        <mxCell id="lmEOL8vwbCnzUJfN-mL1-64" value="locations" style="ellipse;whiteSpace=wrap;html=1;align=center;fontStyle=4;" vertex="1" parent="1">
          <mxGeometry x="-310" y="-300" width="100" height="40" as="geometry" />
        </mxCell>
        <mxCell id="lmEOL8vwbCnzUJfN-mL1-65" value="code" style="ellipse;whiteSpace=wrap;html=1;align=center;fontStyle=4;" vertex="1" parent="1">
          <mxGeometry x="-150" y="-300" width="100" height="40" as="geometry" />
        </mxCell>
        <mxCell id="lmEOL8vwbCnzUJfN-mL1-70" value="employeeID" style="ellipse;whiteSpace=wrap;html=1;align=center;" vertex="1" parent="1">
          <mxGeometry x="190" y="-300" width="100" height="40" as="geometry" />
        </mxCell>
        <mxCell id="lmEOL8vwbCnzUJfN-mL1-73" style="edgeStyle=orthogonalEdgeStyle;rounded=0;orthogonalLoop=1;jettySize=auto;html=1;exitX=1;exitY=0.5;exitDx=0;exitDy=0;entryX=0;entryY=0.5;entryDx=0;entryDy=0;endArrow=none;endFill=0;" edge="1" parent="1" source="lmEOL8vwbCnzUJfN-mL1-72" target="lmEOL8vwbCnzUJfN-mL1-4">
          <mxGeometry relative="1" as="geometry" />
        </mxCell>
        <mxCell id="lmEOL8vwbCnzUJfN-mL1-72" value="departmentID" style="ellipse;whiteSpace=wrap;html=1;align=center;" vertex="1" parent="1">
          <mxGeometry x="-450" y="-200" width="100" height="40" as="geometry" />
        </mxCell>
        <mxCell id="lmEOL8vwbCnzUJfN-mL1-78" style="edgeStyle=orthogonalEdgeStyle;rounded=0;orthogonalLoop=1;jettySize=auto;html=1;exitX=0.5;exitY=1;exitDx=0;exitDy=0;entryX=0.5;entryY=0;entryDx=0;entryDy=0;endArrow=ERoneToMany;endFill=0;" edge="1" parent="1" source="lmEOL8vwbCnzUJfN-mL1-74" target="lmEOL8vwbCnzUJfN-mL1-21">
          <mxGeometry relative="1" as="geometry" />
        </mxCell>
        <mxCell id="lmEOL8vwbCnzUJfN-mL1-74" value="participate" style="shape=rhombus;perimeter=rhombusPerimeter;whiteSpace=wrap;html=1;align=center;" vertex="1" parent="1">
          <mxGeometry x="30" y="-20" width="120" height="60" as="geometry" />
        </mxCell>
        <mxCell id="lmEOL8vwbCnzUJfN-mL1-80" value="week working time" style="ellipse;whiteSpace=wrap;html=1;align=center;" vertex="1" parent="1">
          <mxGeometry x="40" y="150" width="100" height="40" as="geometry" />
        </mxCell>
      </root>
    </mxGraphModel>
  </diagram>
</mxfile>
